<svg width="60" height="60" fill="none" xmlns="http://www.w3.org/2000/svg"><g clip-path="url(#clip0_20083_252)" fill="#335B4C" stroke="#E6EAE9" stroke-width=".8"><path d="M22.216 1.945c-1.98.48-3.668 2.051-4.3 4.02-.223.68-.258 1.125-.317 3.55l-.047 2.79H13.31c-4.617 0-5.812.093-7.183.527-1.336.422-2.297 1.031-3.504 2.227-.903.89-1.149 1.218-1.606 2.168-1.043 2.109-.96.644-.96 18.046C.056 48.06.08 50.79.22 51.316c.903 3.516 3.61 6.082 7.137 6.762 1.29.246 43.992.246 45.281 0 3.293-.633 5.79-2.812 6.914-6.047l.387-1.113V35.391c0-17.532.082-16.055-.95-18.164-.468-.938-.714-1.266-1.616-2.168-1.207-1.196-2.157-1.805-3.504-2.227-1.371-.434-2.567-.527-7.184-.527h-4.242l-.047-2.79c-.059-2.425-.094-2.87-.316-3.55-.645-1.992-2.32-3.55-4.36-4.031-1.078-.246-14.449-.246-15.504.011zm15.246 3.621c.657.329 1.114.903 1.313 1.641.07.258.129 1.5.129 2.777v2.32H21.09v-2.32c0-2.648.117-3.246.727-3.879.832-.855.527-.832 8.191-.832h6.856l.597.293zm11.848 29.73l.023 19.43h-38.67v-19.37c0-10.665.035-19.419.082-19.454.035-.046 8.73-.07 19.3-.058l19.231.035.035 19.418zM7.1 54.353c-.036.023-.376-.13-.774-.34-1.29-.692-2.38-2.133-2.684-3.598-.094-.434-.129-4.91-.129-15.176 0-15.914-.023-15.21.68-16.535.41-.785 1.453-1.805 2.25-2.215l.644-.316.036 19.055c.011 10.488 0 19.09-.024 19.125zM54.301 16.98a5.89 5.89 0 011.852 2.46l.27.657.035 14.765c.023 10.711 0 14.953-.094 15.469-.293 1.488-1.371 2.977-2.684 3.68-.375.199-.726.363-.761.363-.036 0-.07-8.59-.07-19.09v-19.1l.362.128c.211.07.692.375 1.09.668z"/><path d="M25.676 23.18a2.053 2.053 0 00-.645.527c-.234.316-.246.516-.281 3.316L24.715 30h-2.836c-3.176 0-3.41.047-3.914.809-.27.398-.27.433-.27 4.453 0 3.843.012 4.078.235 4.441.129.211.398.48.61.61.362.21.597.234 3.292.234h2.895v2.918c0 2.824.011 2.918.27 3.293.14.21.41.504.585.633.328.234.457.246 4.418.246 3.96 0 4.09-.012 4.418-.246.176-.13.445-.422.598-.633.246-.375.257-.469.257-3.293v-2.918h2.907c2.683 0 2.918-.024 3.28-.234a2.16 2.16 0 00.61-.61c.223-.363.235-.598.235-4.441 0-4.02 0-4.055-.27-4.453-.504-.762-.738-.809-3.914-.809h-2.836l-.035-2.977c-.047-4.324.293-4.054-5.25-4.054-3.504 0-3.973.023-4.324.21zm6.082 6.082c0 2.531.023 2.812.234 3.258.152.304.399.574.692.738.433.246.586.258 3.28.258h2.825v3.504l-2.918.035c-3.223.035-3.21.035-3.809.843-.234.305-.246.504-.28 3.305l-.036 2.977h-3.492l-.035-2.977c-.035-2.8-.047-3-.282-3.305-.597-.808-.585-.808-3.808-.843l-2.918-.035v-3.504h2.812c3.282 0 3.528-.059 3.973-.973.235-.469.246-.703.246-3.281v-2.778h3.516v2.778z"/></g><defs><clipPath id="clip0_20083_252"><path fill="#fff" d="M0 0h60v60H0z"/></clipPath></defs></svg>