<svg width="60" height="60" fill="none" xmlns="http://www.w3.org/2000/svg"><g clip-path="url(#clip0_20083_233)" fill="#335B4C" stroke="#E6EAE9" stroke-width=".5"><path d="M29.156.246c-.27.14-.539.41-.68.692-.222.433-.234.68-.234 4.394 0 3.715.012 3.961.235 4.395.27.527.937.937 1.523.937.586 0 1.254-.41 1.523-.937.223-.434.235-.68.235-4.395 0-3.715-.012-3.96-.235-4.394-.433-.856-1.488-1.16-2.367-.692zM9.423 8.543c-.843.387-1.242 1.254-.972 2.086.187.586 5.191 5.66 5.93 6.023.703.34 1.324.223 1.91-.363.55-.55.69-1.16.41-1.828-.246-.61-5.203-5.59-5.871-5.906-.586-.293-.797-.293-1.407-.012zm39.734.012c-.668.328-5.614 5.308-5.86 5.906-.28.668-.14 1.277.41 1.828.586.586 1.207.703 1.91.363.739-.363 5.743-5.437 5.93-6.023.27-.832-.129-1.7-.972-2.086-.61-.281-.844-.281-1.418.012zM28.595 14.25c-4.195.504-7.078 1.852-9.785 4.559-5.098 5.074-6.094 13.043-2.414 19.218.68 1.149.984 1.547 2.636 3.422 1.43 1.63 1.993 3.14 2.18 5.778.059.867.164 1.77.223 1.992.152.504.855 1.699 1.254 2.12.27.282.28.352.28 2.005 0 .937.06 1.98.118 2.332a5.33 5.33 0 004.207 4.207c.82.152 4.594.152 5.414 0a5.33 5.33 0 004.207-4.207c.059-.352.117-1.395.117-2.32v-1.7l.399-.457c.914-1.066 1.36-2.343 1.36-3.855 0-1.63.585-3.657 1.44-4.934a14.54 14.54 0 011.16-1.453c2.052-2.262 3.188-4.3 3.903-6.996a15.857 15.857 0 00-.305-8.953c-1.793-5.39-6.457-9.457-12.082-10.535-.972-.188-3.539-.317-4.312-.223zm2.906 3.563c4.02.503 7.594 2.988 9.41 6.539 2.285 4.476 1.688 9.773-1.547 13.558-1.652 1.946-2.027 2.438-2.496 3.27-.925 1.617-1.593 4.148-1.593 6.011 0 1.102-.27 1.688-.938 2.028-.434.222-.68.234-4.336.234s-3.902-.012-4.336-.234c-.656-.34-.937-.938-.937-2.016 0-1.805-.493-3.902-1.313-5.543-.539-1.09-1.09-1.851-2.32-3.222-1.113-1.243-1.512-1.817-2.168-3.188-.82-1.688-1.137-3.094-1.148-5.074-.012-.926.046-1.992.14-2.461 1.195-6.41 7.09-10.711 13.582-9.902zm2.016 36.21c0 1.313-.235 1.864-.938 2.227-.41.21-.691.234-2.578.234s-2.168-.023-2.578-.234c-.703-.363-.938-.914-.938-2.227V52.97h7.032v1.054z"/><path d="M28.3 21.387c-3.129.574-5.73 2.894-6.68 5.93-.258.82-.176 1.37.305 1.921.187.211.539.457.762.528.984.328 1.84-.235 2.332-1.535.785-2.028 2.449-3.305 4.57-3.47 1.055-.081 1.629-.374 1.934-.972.656-1.289-.235-2.59-1.782-2.566-.34 0-.984.082-1.441.164zM.914 28.488C.41 28.746 0 29.438 0 30c0 .586.41 1.254.938 1.523.433.223.68.235 4.394.235 3.715 0 3.961-.012 4.395-.235.527-.27.937-.937.937-1.523 0-.586-.41-1.254-.937-1.523-.434-.223-.68-.235-4.418-.235-3.715.012-3.985.024-4.395.246zm49.336 0c-.504.258-.914.95-.914 1.512 0 .586.41 1.254.937 1.523.434.223.68.235 4.395.235 3.715 0 3.96-.012 4.395-.235.527-.27.937-.937.937-1.523 0-.586-.41-1.254-.938-1.523-.433-.223-.68-.235-4.417-.235-3.715.012-3.985.024-4.395.246z"/></g><defs><clipPath id="clip0_20083_233"><path fill="#fff" d="M0 0h60v60H0z"/></clipPath></defs></svg>