<svg width="60" height="60" fill="none" xmlns="http://www.w3.org/2000/svg"><g clip-path="url(#clip0_20083_316)" fill="#335B4C" stroke="#E6EAE9"><path d="M41.719 36.328H37.03v-3.15c3.186-2.226 5.274-5.92 5.274-10.092v-5.508h1.758c.97 0 1.757-.787 1.757-1.758V5.273A5.28 5.28 0 0040.547 0H19.453a5.28 5.28 0 00-5.273 5.273V15.82c0 .971.787 1.758 1.758 1.758h1.757v5.508c0 4.172 2.088 7.866 5.274 10.092v3.15H18.28c-7.43 0-13.476 6.046-13.476 13.477v8.437c0 .971.787 1.758 1.758 1.758h46.874c.971 0 1.758-.787 1.758-1.758v-8.437c0-7.431-6.045-13.477-13.476-13.477zM17.695 5.273a1.76 1.76 0 011.758-1.757h21.094c.97 0 1.758.788 1.758 1.757v8.79h-24.61v-8.79zm3.516 17.813v-5.508h17.578v5.508c0 4.846-3.943 8.789-8.789 8.789s-8.79-3.943-8.79-8.79zM30 35.39c1.221 0 2.401-.18 3.516-.513v2.861c-.747 1.648-2.283 2.244-3.516 2.244s-2.769-.596-3.516-2.243v-2.862A12.26 12.26 0 0030 35.39zm21.68 21.093h-5.86V53.32a1.758 1.758 0 00-3.515 0v3.164h-24.61V53.32a1.758 1.758 0 00-3.515 0v3.164H8.32v-6.68c0-5.492 4.469-9.96 9.961-9.96h5.34c1.308 2.253 3.696 3.654 6.379 3.654 2.683 0 5.071-1.4 6.379-3.654h5.34c5.492 0 9.96 4.468 9.96 9.96v6.68z"/><path d="M27.656 10.547h.586v.586a1.758 1.758 0 003.516 0v-.586h.586a1.758 1.758 0 000-3.516h-.586v-.586a1.758 1.758 0 00-3.516 0v.586h-.586a1.758 1.758 0 000 3.516zM24.14 46.875h-4.687a1.758 1.758 0 000 3.516h4.688a1.758 1.758 0 000-3.516z"/></g><defs><clipPath id="clip0_20083_316"><path fill="#fff" d="M0 0h60v60H0z"/></clipPath></defs></svg>