<svg width="60" height="60" fill="none" xmlns="http://www.w3.org/2000/svg"><path fill-rule="evenodd" clip-rule="evenodd" d="M28.898 3.485a1.875 1.875 0 012.21 0l6.071 4.429 7.515-.014a1.875 1.875 0 011.788 1.299l2.309 7.151 6.088 4.406c.66.477.936 1.327.683 2.101L53.226 30l2.336 7.143a1.875 1.875 0 01-.683 2.101L48.79 43.65l-2.308 7.15c-.25.776-.973 1.3-1.788 1.3l-7.515-.015-6.07 4.429c-.66.48-1.553.48-2.21 0l-6.072-4.429-7.515.014a1.875 1.875 0 01-1.788-1.299l-2.308-7.151-6.089-4.406a1.875 1.875 0 01-.682-2.101L6.78 30l-2.335-7.143a1.875 1.875 0 01.682-2.101l6.089-4.406 2.308-7.15a1.876 1.876 0 011.788-1.3l7.515.015 6.071-4.429zm1.105 3.836l-5.462 3.984c-.321.235-.71.36-1.108.36l-6.76-.013-2.077 6.434c-.123.379-.363.71-.685.943l-5.477 3.963 2.101 6.425c.124.379.124.787 0 1.166l-2.101 6.425 5.477 3.963c.322.234.562.564.685.943l2.077 6.434 6.76-.013c.398 0 .787.125 1.108.36l5.462 3.984 5.462-3.984c.322-.235.71-.36 1.108-.36l6.76.013 2.077-6.434c.123-.379.363-.71.686-.943l5.476-3.963-2.101-6.425a1.874 1.874 0 010-1.166l2.101-6.425-5.477-3.963a1.875 1.875 0 01-.685-.943l-2.076-6.434-6.76.013c-.4 0-.787-.125-1.11-.36l-5.46-3.984z" fill="#335B4C"/><path fill-rule="evenodd" clip-rule="evenodd" d="M41.33 22.424c.732.732.732 1.92 0 2.652l-12.5 12.5a1.875 1.875 0 01-2.652 0l-6.25-6.25a1.875 1.875 0 012.651-2.652l4.924 4.924 11.175-11.174a1.875 1.875 0 012.651 0z" fill="#335B4C"/><path clip-rule="evenodd" d="M28.898 3.485a1.875 1.875 0 012.21 0l6.071 4.429 7.515-.014a1.875 1.875 0 011.788 1.299l2.309 7.151 6.088 4.406c.66.477.936 1.327.683 2.101L53.226 30l2.336 7.143a1.875 1.875 0 01-.683 2.101L48.79 43.65l-2.308 7.15c-.25.776-.973 1.3-1.788 1.3l-7.515-.015-6.07 4.429c-.66.48-1.553.48-2.21 0l-6.072-4.429-7.515.014a1.875 1.875 0 01-1.788-1.299l-2.308-7.151-6.089-4.406a1.875 1.875 0 01-.682-2.101L6.78 30l-2.335-7.143a1.875 1.875 0 01.682-2.101l6.089-4.406 2.308-7.15a1.876 1.876 0 011.788-1.3l7.515.015 6.071-4.429zm1.105 3.836l-5.462 3.984c-.321.235-.71.36-1.108.36l-6.76-.013-2.077 6.434c-.123.379-.363.71-.685.943l-5.477 3.963 2.101 6.425c.124.379.124.787 0 1.166l-2.101 6.425 5.477 3.963c.322.234.562.564.685.943l2.077 6.434 6.76-.013c.398 0 .787.125 1.108.36l5.462 3.984 5.462-3.984c.322-.235.71-.36 1.108-.36l6.76.013 2.077-6.434c.123-.379.363-.71.686-.943l5.476-3.963-2.101-6.425a1.874 1.874 0 010-1.166l2.101-6.425-5.477-3.963a1.875 1.875 0 01-.685-.943l-2.076-6.434-6.76.013c-.4 0-.787-.125-1.11-.36l-5.46-3.984z" stroke="#E6EAE9" stroke-width=".6" stroke-linecap="round" stroke-linejoin="round"/><path clip-rule="evenodd" d="M41.33 22.424c.732.732.732 1.92 0 2.652l-12.5 12.5a1.875 1.875 0 01-2.652 0l-6.25-6.25a1.875 1.875 0 012.651-2.652l4.924 4.924 11.175-11.174a1.875 1.875 0 012.651 0z" stroke="#E6EAE9" stroke-width=".6" stroke-linecap="round" stroke-linejoin="round"/></svg>