<svg width="60" height="60" fill="none" xmlns="http://www.w3.org/2000/svg"><path fill-rule="evenodd" clip-rule="evenodd" d="M30 14.375c-10.7 0-19.375 8.674-19.375 19.375 0 10.7 8.674 19.375 19.375 19.375 10.7 0 19.375-8.675 19.375-19.375S40.7 14.375 30 14.375zM6.875 33.75c0-12.772 10.353-23.125 23.125-23.125S53.125 20.978 53.125 33.75 42.772 56.875 30 56.875 6.875 46.522 6.875 33.75zM20.625 5c0-1.036.84-1.875 1.875-1.875h15a1.875 1.875 0 010 3.75h-15A1.875 1.875 0 0120.625 5z" fill="#335B4C"/><path fill-rule="evenodd" clip-rule="evenodd" d="M30 21.875c1.035 0 1.875.84 1.875 1.875v10a1.875 1.875 0 01-3.75 0v-10c0-1.035.84-1.875 1.875-1.875z" fill="#335B4C"/><path fill-rule="evenodd" clip-rule="evenodd" d="M28.125 33.75c0-1.035.84-1.875 1.875-1.875h10a1.875 1.875 0 010 3.75H30a1.875 1.875 0 01-1.875-1.875zM30 3.125c1.035 0 1.875.84 1.875 1.875v5a1.875 1.875 0 01-3.75 0V5c0-1.036.84-1.875 1.875-1.875z" fill="#335B4C"/><path d="M30 35.625c1.035 0 1.875-.84 1.875-1.875v-10a1.875 1.875 0 00-3.75 0v10M30 35.625a1.875 1.875 0 01-1.875-1.875M30 35.625h10a1.875 1.875 0 000-3.75H30c-1.035 0-1.875.84-1.875 1.875m-17.5 0c0-10.7 8.674-19.375 19.375-19.375 10.7 0 19.375 8.674 19.375 19.375 0 10.7-8.675 19.375-19.375 19.375S10.625 44.45 10.625 33.75zM30 10.625c-12.772 0-23.125 10.353-23.125 23.125S17.228 56.875 30 56.875 53.125 46.522 53.125 33.75 42.772 10.625 30 10.625zm-7.5-7.5a1.875 1.875 0 000 3.75h15a1.875 1.875 0 000-3.75h-15zM31.875 5a1.875 1.875 0 00-3.75 0v5a1.875 1.875 0 003.75 0V5z" stroke="#E6EAE9" stroke-width=".8" stroke-linecap="round" stroke-linejoin="round"/></svg>