<svg width="56" height="56" fill="none" xmlns="http://www.w3.org/2000/svg"><g clip-path="url(#clip0_20083_330)"><path d="M50.35 37.262l3.83-3.832a6.228 6.228 0 00.001-8.798 6.217 6.217 0 00-2.593-1.556 6.178 6.178 0 001.204-3.68 6.18 6.18 0 00-1.823-4.398 6.18 6.18 0 00-4.608-1.82 6.208 6.208 0 00-6.42-6.42 6.18 6.18 0 00-1.819-4.608 6.229 6.229 0 00-8.798 0L28 3.475 26.676 2.15a6.18 6.18 0 00-4.4-1.823 6.181 6.181 0 00-4.398 1.822 6.203 6.203 0 00-1.814 4.607 6.184 6.184 0 00-4.61 1.817A6.206 6.206 0 009.64 13.18a6.179 6.179 0 00-4.61 1.817 6.18 6.18 0 00-1.821 4.398c0 1.342.422 2.62 1.203 3.68a6.228 6.228 0 00-2.61 10.338l.018.018 3.837 3.836.016.017c.23.23.477.44.735.628l-1.135 1.135c-1.104 1.104-1.666 2.607-1.582 4.234.079 1.561.751 3.049 1.89 4.189l6.49 6.49a6.156 6.156 0 004.366 1.805 6.156 6.156 0 004.366-1.805l3.017-3.017c1.376.295 2.778.445 4.18.445 1.403 0 2.805-.149 4.18-.444l3.016 3.016a6.156 6.156 0 004.366 1.805c1.58 0 3.163-.602 4.366-1.805l6.49-6.49c2.407-2.407 2.68-6.05.61-8.122l-1.383-1.383.682-.682.023-.022zM20.252 4.525a2.846 2.846 0 012.025-.84c.765 0 1.484.299 2.025.84l5.138 5.138a2.867 2.867 0 010 4.05c-.54.54-1.26.839-2.024.839h0a2.846 2.846 0 01-2.025-.84l-.002-.001-5.135-5.136-.013-.012a2.867 2.867 0 01.011-4.038zM13.821 14.99a2.867 2.867 0 01.007-4.042 2.847 2.847 0 012.026-.838 2.843 2.843 0 012.03.843l5.132 5.133.01.01 1.275 1.275c.541.541.84 1.26.84 2.026 0 .764-.298 1.483-.84 2.024-.54.54-1.26.838-2.024.838a2.843 2.843 0 01-2.024-.838l-.02-.02-1.26-1.26a.071.071 0 01-.005-.005l-5.14-5.138h0l-.007-.008zm-6.415 2.38a2.844 2.844 0 012.024-.838c.764 0 1.484.298 2.024.839l5.145 5.144a2.867 2.867 0 01-.005 4.044c-.541.54-1.26.838-2.025.838a2.843 2.843 0 01-2.025-.838l-.02-.02-5.102-5.102-.017-.017a2.844 2.844 0 01-.838-2.024c0-.765.298-1.484.839-2.026zM4.21 31.074l-.019-.02a2.866 2.866 0 01.002-4.047 2.849 2.849 0 012.025-.839c.765 0 1.484.298 2.025.84l3.854 3.853a2.867 2.867 0 010 4.05c-.54.54-1.26.838-2.024.838h0c-.14 0-.28-.01-.416-.03l-.031-.005a2.842 2.842 0 01-1.566-.791l-.013-.014-3.837-3.835zm19.52 16.399l-.043-.01a1.73 1.73 0 00-.1-.021l-.075-.01a1.65 1.65 0 00-.338-.01l-.068.006a1.718 1.718 0 00-.323.07l-.072.025c-.028.01-.056.02-.083.033a1.904 1.904 0 00-.21.11l-.072.046a1.49 1.49 0 00-.127.096 1.582 1.582 0 00-.079.072l-.03.027-3.68 3.68a2.82 2.82 0 01-3.983 0l-6.49-6.49c-.55-.551-.875-1.256-.912-1.987-.034-.665.18-1.264.604-1.687l2.318-2.319c.035 0 .07.003.107.003 0 0 0 0 0 0a6.181 6.181 0 004.399-1.822 6.23 6.23 0 001.393-6.665 6.183 6.183 0 003.103-1.686 6.191 6.191 0 001.756-3.512 6.25 6.25 0 001.553.195s0 0 0 0a6.18 6.18 0 004.399-1.822 6.181 6.181 0 001.822-4.399c0-.53-.067-1.05-.194-1.55a6.168 6.168 0 003.51-1.76 6.228 6.228 0 000-8.797l-1.44-1.44L31.7 4.525a2.867 2.867 0 014.05 0c.54.54.838 1.26.838 2.024 0 .765-.298 1.484-.839 2.025a1.674 1.674 0 00-.492 1.187 1.678 1.678 0 002.866 1.187 2.867 2.867 0 014.05 0 2.867 2.867 0 010 4.05 1.674 1.674 0 000 2.373 1.679 1.679 0 002.373 0 2.849 2.849 0 012.026-.838c.764 0 1.483.297 2.024.838.541.542.839 1.26.839 2.026 0 .754-.29 1.464-.817 2.002l-.023.023-2.407 2.408c-.6.6-.658 1.551-.137 2.22l.087.11a1.68 1.68 0 002.182.41 2.86 2.86 0 013.488.436 2.867 2.867 0 010 4.05l-3.853 3.853-.023.023-8.27 8.271a16.553 16.553 0 01-15.932 4.27zm24.925-5.75c.736.736.451 2.313-.61 3.374l-6.49 6.49a2.82 2.82 0 01-3.983 0L35.785 49.8a19.875 19.875 0 006.25-4.224l5.236-5.236 1.383 1.382z" fill="#335B4C" stroke="#E6EAE9" stroke-width=".5"/></g><defs><clipPath id="clip0_20083_330"><path fill="#fff" d="M0 0h56v56H0z"/></clipPath></defs></svg>