<svg width="60" height="60" fill="none" xmlns="http://www.w3.org/2000/svg"><path fill-rule="evenodd" clip-rule="evenodd" d="M12.5 6.875a.625.625 0 00-.625.625v45c0 .345.28.625.625.625h35c.345 0 .625-.28.625-.625v-45a.625.625 0 00-.625-.625h-35zM8.125 7.5A4.375 4.375 0 0112.5 3.125h35A4.375 4.375 0 0151.875 7.5v45a4.375 4.375 0 01-4.375 4.375h-35A4.375 4.375 0 018.125 52.5v-45z" fill="#335B4C"/><path fill-rule="evenodd" clip-rule="evenodd" d="M23.125 18.75a6.875 6.875 0 1113.75 0 6.875 6.875 0 01-13.75 0zM30 15.625a3.125 3.125 0 100 6.25 3.125 3.125 0 000-6.25z" fill="#335B4C"/><path fill-rule="evenodd" clip-rule="evenodd" d="M20.625 31.25a9.375 9.375 0 1118.75 0 1.875 1.875 0 01-3.75 0 5.625 5.625 0 00-11.25 0 1.875 1.875 0 01-3.75 0zm0 7.5c0-1.035.84-1.875 1.875-1.875h15a1.875 1.875 0 010 3.75h-15a1.875 1.875 0 01-1.875-1.875zm0 7.5c0-1.035.84-1.875 1.875-1.875h8.75a1.875 1.875 0 010 3.75H22.5a1.875 1.875 0 01-1.875-1.875z" fill="#335B4C"/><path d="M30 25.625a6.875 6.875 0 100-13.75 6.875 6.875 0 000 13.75zm0 0a5.625 5.625 0 015.625 5.625 1.875 1.875 0 003.75 0A9.375 9.375 0 0030 21.875m0 3.75a5.625 5.625 0 00-5.625 5.625 1.875 1.875 0 01-3.75 0A9.375 9.375 0 0130 21.875m0 0a3.125 3.125 0 110-6.25 3.125 3.125 0 010 6.25zm-17.5-15a.625.625 0 00-.625.625v45c0 .345.28.625.625.625h35c.345 0 .625-.28.625-.625v-45a.625.625 0 00-.625-.625h-35zM8.125 7.5A4.375 4.375 0 0112.5 3.125h35A4.375 4.375 0 0151.875 7.5v45a4.375 4.375 0 01-4.375 4.375h-35A4.375 4.375 0 018.125 52.5v-45zm12.5 31.25c0-1.035.84-1.875 1.875-1.875h15a1.875 1.875 0 010 3.75h-15a1.875 1.875 0 01-1.875-1.875zm0 7.5c0-1.035.84-1.875 1.875-1.875h8.75a1.875 1.875 0 010 3.75H22.5a1.875 1.875 0 01-1.875-1.875z" stroke="#E6EAE9" stroke-width=".8" stroke-linecap="round" stroke-linejoin="round"/></svg>