<svg width="60" height="60" fill="none" xmlns="http://www.w3.org/2000/svg"><g clip-path="url(#clip0_20083_310)" fill="#335B4C" stroke="#E6EAE9" stroke-width="2.3"><path d="M42.724 37.27c-4.741 0-8.784 3.041-10.285 7.276h-4.884c-1.5-4.235-5.543-7.276-10.285-7.276-6.016 0-10.91 4.894-10.91 10.911 0 6.016 4.894 10.91 10.91 10.91 5.396 0 9.887-3.938 10.756-9.09h3.943c.868 5.152 5.36 9.09 10.755 9.09 6.017 0 10.911-4.894 10.911-10.91 0-6.017-4.895-10.911-10.91-10.911zM17.27 53.636a5.462 5.462 0 01-5.456-5.456 5.463 5.463 0 015.456-5.457 5.463 5.463 0 015.456 5.457 5.462 5.462 0 01-5.456 5.456zm25.454 0a5.462 5.462 0 01-5.455-5.456 5.463 5.463 0 015.455-5.457 5.463 5.463 0 015.457 5.457 5.462 5.462 0 01-5.457 5.456zm14.549-27.272h-7.117l-1.664-8.725-.002-.01-2.008-10.53a2.727 2.727 0 00-1.928-2.11L30.667 1.015a2.727 2.727 0 00-1.51.002L15.437 4.99a2.728 2.728 0 00-1.92 2.109L11.51 17.627l-.002.014-1.663 8.723H2.727a2.727 2.727 0 000 5.454h54.546a2.727 2.727 0 000-5.454zM29.92 6.474l11.518 3.297 1.084 5.684H17.477l1.085-5.69 11.359-3.29zm-14.523 19.89l1.04-5.455h27.125l1.04 5.455H15.397z"/></g><defs><clipPath id="clip0_20083_310"><path fill="#fff" d="M0 0h60v60H0z"/></clipPath></defs></svg>