<svg width="26" height="26" fill="none" xmlns="http://www.w3.org/2000/svg"><path d="M23.563 17.875a.773.773 0 01-.17-.018l-3.513-.752a8.897 8.897 0 01-3.63.77c-4.48 0-8.125-3.28-8.125-7.313 0-4.032 3.645-7.312 8.125-7.312s8.125 3.28 8.125 7.313a6.728 6.728 0 01-.88 3.305l.849 2.972a.813.813 0 01-.782 1.035zm-7.313-13c-3.584 0-6.5 2.552-6.5 5.688 0 3.135 2.916 5.687 6.5 5.687a7.23 7.23 0 003.174-.727.816.816 0 01.529-.065l2.457.526-.574-2.008a.813.813 0 01.095-.659 5.07 5.07 0 00.819-2.755c0-3.135-2.916-5.687-6.5-5.687z" fill="#fff"/><path d="M2.438 22.75a.812.812 0 01-.782-1.035l.847-2.971a6.774 6.774 0 01-.878-3.306c0-3.787 3.283-6.988 7.474-7.286a.813.813 0 11.116 1.62c-3.345.24-5.965 2.727-5.965 5.665.007.98.29 1.936.818 2.761a.812.812 0 01.094.655l-.572 2.005 2.455-.527a.82.82 0 01.532.066 7.179 7.179 0 003.173.728c2.993 0 5.588-1.773 6.312-4.31a.814.814 0 111.563.446c-.922 3.232-4.16 5.489-7.875 5.489a8.85 8.85 0 01-3.633-.773l-3.509.755a.83.83 0 01-.17.018z" fill="#fff"/></svg>