<svg width="60" height="60" fill="none" xmlns="http://www.w3.org/2000/svg"><path d="M30.574.211c-.668.445-14.039 11.508-14.894 12.316-2.707 2.555-4.477 5.743-5.25 9.387-.13.61-.235 1.266-.235 1.465-.011 1.137-.351.305-1.113-2.742-.258-1.008-.55-1.547-1.148-2.121-1.98-1.91-5.168-1.336-6.375 1.148-.282.586-.317.809-.317 1.723 0 1.136.317 3.117.88 5.449 1.874 7.875 5.812 15.352 11.132 21.117l1.043 1.137-1.067 1.851c-.585 1.02-1.113 1.899-1.16 1.946-.047.058-1.535-.727-3.293-1.746-3.504-2.028-3.785-2.133-4.37-1.582-.587.55-.505 1.383.198 1.851.2.14 3.598 2.11 7.524 4.383 6.328 3.656 7.207 4.137 7.652 4.137.422.011.563-.047.797-.317.375-.433.387-1.125.024-1.523-.153-.164-1.665-1.102-3.375-2.074a305.72 305.72 0 01-3.13-1.817c-.023-.011.423-.82.985-1.793l1.02-1.77.937.74c2.965 2.308 4.453 3.081 12.047 6.304 5.848 2.472 6.082 2.543 6.61 1.933.41-.48.386-1.183-.036-1.57-.187-.164-2.625-1.266-5.601-2.508-2.895-1.218-5.907-2.531-6.68-2.918-2.942-1.465-5.59-3.422-8.027-5.93-6.13-6.292-10.465-15.34-11.73-24.492-.165-1.23-.083-1.605.503-2.097.434-.364.797-.457 1.348-.352.715.13 1.125.668 1.418 1.817 1.511 5.894 3.879 10.921 7.254 15.386 1.453 1.91 2.144 2.684 5.472 6.035 3.68 3.704 3.856 3.832 5.402 3.832.774 0 1.055-.058 1.583-.304 1.582-.75 2.437-2.414 2.109-4.055-.082-.375-.246-.89-.387-1.148-.14-.282-1.922-2.18-4.418-4.688-4.57-4.594-4.441-4.43-4.3-5.637.07-.644.55-1.3 1.171-1.605.551-.281 1.465-.281 1.98-.012.212.106 1.231 1.02 2.262 2.028 2.157 2.109 3.727 3.398 5.801 4.757 2.485 1.641 3.809 2.32 7.5 3.868 4.723 1.98 8.203 4.23 11.567 7.476 1.523 1.477 2.8 2.965 5.343 6.258 1.418 1.84 1.817 2.273 2.145 2.379.48.164 1.008 0 1.277-.399.211-.293.223-.972.024-1.312-.328-.563-4.594-5.941-5.567-7.008-2.613-2.871-6.234-5.719-9.539-7.512-.574-.304-1.03-.574-1.03-.609 0-.023.257-.352.585-.715 1.863-2.12 3.082-4.324 3.879-6.973.363-1.23 3.387-19.066 3.387-20.003 0-.305-.082-.551-.258-.739C49.922 10.63 33.269.95 31.793.188c-.48-.247-.832-.235-1.219.023zm2.801 3.563c.469.269.832.527.82.574-.023.035-1.43 1.218-3.14 2.625-3.422 2.8-3.657 3.058-3.387 3.785.2.504.797.867 1.3.762.177-.036 1.817-1.301 3.81-2.93 1.921-1.582 3.55-2.895 3.632-2.93.117-.047 11.18 6.258 11.461 6.54.07.07-.234 2.167-.867 6.023l-.984 5.906-.81.422c-2.425 1.277-5.331 1.723-8.355 1.289-2.378-.34-3.996-.89-7.37-2.52-4.489-2.168-6.657-2.742-10.325-2.73-2.332 0-3.035.105-5.039.797-.644.222-1.195.375-1.219.34-.035-.024.118-.563.329-1.196.785-2.332 2.367-4.77 4.148-6.41.527-.48 3.879-3.27 7.453-6.2l6.492-5.331.598.351 1.453.833zm-10.852 19.43c1.735.363 3.317.96 6.07 2.284 2.59 1.242 3.856 1.746 5.391 2.157 3.856 1.03 7.618.914 10.887-.34l.633-.246-.082.62c-.516 3.938-1.899 7.032-4.324 9.645l-.867.938-1.454-.586c-2.93-1.172-5.754-2.742-8.109-4.477-1.535-1.136-2.426-1.922-4.57-3.996-2.192-2.133-2.532-2.308-4.301-2.308-1.09 0-1.313.035-1.899.316a4.828 4.828 0 00-2.238 2.191c-.351.715-.375.856-.375 1.946 0 1.078.035 1.23.387 1.98.351.738.726 1.16 4.043 4.5l3.656 3.668-.879-.305c-2.86-1.02-5.777-2.882-7.805-5.003-2.636-2.766-4.066-6.118-4.23-9.891l-.059-1.535 1.043-.54c1.09-.562 2.614-1.054 3.844-1.253 1.09-.164 3.926-.047 5.238.234zm1.97 20.448c.55.176 1.124.352 1.288.41.293.083.293.083-.129.294-.644.316-1.148.164-1.886-.54-.34-.328-.54-.562-.446-.527.094.035.621.2 1.172.363z" fill="#335B4C"/><path d="M24.828 12.164c-.305.27-.375.422-.375.832 0 .844.692 1.336 1.5 1.066.961-.316 1.02-1.617.094-2.097-.422-.211-.832-.152-1.219.2z" fill="#335B4C"/></svg>