<svg width="60" height="60" fill="none" xmlns="http://www.w3.org/2000/svg"><path d="M23.476.246c-.867.328-1.758 1.184-2.156 2.04-.188.386-.34.784-.34.878 0 .094-.34.422-.75.715-.914.668-1.828 1.758-2.344 2.777-.645 1.301-1.828 4.43-2.016 5.332-.117.528-.164 1.266-.14 1.946l.035 1.113-.703.281c-.996.399-2.508 1.43-3.211 2.203-1.278 1.395-1.817 2.461-2.637 5.203-.703 2.38-.726 2.602-.234 3.094.527.527 1.57.375 1.922-.281.07-.129.375-1.067.691-2.086.305-1.02.703-2.133.879-2.484.914-1.84 2.46-3.094 4.559-3.727.515-.152 1.71-.188 7.816-.223 5.39-.035 7.277-.082 7.488-.187.363-.188.621-.785.527-1.254-.081-.375-.175-.492-4.335-5.133-1.254-1.394-2.274-2.555-2.274-2.601 0-.036.563-.622 1.266-1.313l1.254-1.242L33.26 9.41c2.46 2.274 4.664 4.383 4.887 4.7.222.316.515.867.656 1.23.305.808.422 2.32.234 3.176-.328 1.547-1.5 3.093-2.894 3.832-.504.27-2.965.972-9.07 2.613-4.606 1.242-8.473 2.297-8.579 2.355-.258.141-.562.715-.562 1.043 0 .34.316.903.574 1.055.422.223 1.113.117 3.469-.516 1.289-.351 2.355-.62 2.367-.609.059.047-9.375 14.32-9.68 14.637-.586.644-1.066.785-5.156 1.5-2.168.375-4.031.715-4.16.738-.2.047-.211 0-.152-.434.035-.27.68-2.496 1.43-4.933.738-2.45 1.347-4.629 1.347-4.84 0-1.195-1.887-1.535-2.32-.422-.176.446-2.543 8.25-2.766 9.13-.281 1.066-.398 2.94-.293 4.276.469 5.508 4.418 10.22 9.773 11.672 1.079.293 1.348.317 3.457.317 2.145.011 2.356-.012 3.457-.317 1.43-.398 3.48-1.383 4.536-2.18 1.172-.89 2.379-2.167 3.152-3.328.68-1.054.996-1.746 5.144-11.601.868-2.04 1.606-3.715 1.641-3.715.035 0 1.559 2.988 3.375 6.645l3.316 6.656-.421 1.523c-.516 1.852-.563 2.825-.164 3.867.351.95 1.312 1.922 2.25 2.262.656.258.808.258 6.797.258h6.128l.61-.305c1.183-.586 1.77-1.582 1.781-2.976 0-1.254-.316-1.875-1.617-3.164-1.207-1.207-2.309-1.887-3.88-2.414l-1.124-.375-4.512-10.828c-2.484-5.942-4.699-11.157-4.922-11.567-.539-1.02-2.039-2.566-3.129-3.258-.75-.48-.843-.574-.668-.68.645-.374 1.7-1.277 2.18-1.874A8.304 8.304 0 0040 12.399C39.331 11.483 27.753.82 26.991.41c-.585-.316-.796-.351-1.78-.375-.903-.023-1.243.012-1.735.211zm2.402 2.379c.176.094.492.34.692.563l.386.398-1.23 1.219-1.23 1.218-.47-.457c-.972-.949-.902-2.226.153-2.87.445-.27 1.242-.305 1.7-.071zm.317 8.977l2.683 2.988-5.262.035c-4.125.023-5.273 0-5.355-.117-.152-.258-.105-1.664.094-2.332.199-.668 1.476-3.914 1.746-4.442a7.3 7.3 0 01.644-.914l.47-.61 1.16 1.208c.632.656 2.355 2.543 3.82 4.184zm9.222 14.918c.434.152 1.09.468 1.453.68.75.456 1.852 1.57 2.297 2.343.164.281 2.145 4.945 4.406 10.36a5961.801 5961.801 0 014.29 10.277l.187.445h-5.578l-4.36-8.8c-4.265-8.59-4.37-8.79-4.793-8.966-.351-.152-.515-.164-.878-.058-.868.27-1.079 1.113-.516 2.203.164.34.305.668.305.727 0 .152-6.34 15.163-6.739 15.96-1.02 2.028-3.058 3.961-5.168 4.922-2.613 1.184-5.906 1.254-8.484.188-3.047-1.254-5.238-3.598-6.305-6.715-.246-.715-.562-2.25-.48-2.332.023-.023 2.05-.387 4.5-.82 2.437-.434 4.71-.88 5.027-1.008.727-.27 1.606-.926 2.18-1.63.246-.292 2.566-3.773 5.168-7.733 3.844-5.872 4.863-7.348 5.508-7.97 1.172-1.148 2.601-1.921 4.254-2.296 1.054-.235 2.742-.14 3.726.223zm14.801 26.742c1.441.258 2.73.937 3.82 2.039.48.492.914 1.008.95 1.148.035.13 0 .399-.094.598-.246.61-.492.633-6.317.586-4.78-.035-5.308-.059-5.648-.246-.211-.106-.469-.328-.563-.48-.386-.587-.398-.915-.058-2.216.176-.68.351-1.324.386-1.418.07-.164.481-.187 3.329-.187 2.285.012 3.539.059 4.195.176z" fill="#335B4C"/><path d="M7.542 29.004c-.375.27-.55.902-.387 1.406.176.54.516.762 1.184.762.469 0 .598-.047.855-.363.211-.247.305-.493.305-.809 0-.316-.094-.563-.305-.809-.257-.316-.386-.363-.855-.363-.293 0-.656.082-.797.176z" fill="#335B4C"/></svg>