<svg width="60" height="60" fill="none" xmlns="http://www.w3.org/2000/svg"><g clip-path="url(#clip0_20083_341)" fill="#335B4C"><path d="M38.836.223a7.998 7.998 0 00-1.172.527c-.375.223-3.035 2.79-7.582 7.324-4.324 4.301-6.96 6.856-6.879 6.645.07-.176.176-.703.235-1.149.152-1.066 0-2.015-.504-3.082-1.63-3.41-6.399-4.031-8.86-1.16-.258.317-2.015 2.871-3.89 5.672-3.621 5.414-4.407 6.797-5.192 9.14-.867 2.602-1.125 4.758-1.125 9.434v3.035l-1.933 1.946L0 40.5v.563c0 .609.316 1.054.867 1.195.633.152.926-.059 3.2-2.344l2.261-2.262v-3.504c0-1.921.059-4.101.117-4.828.223-2.437.797-4.547 1.852-6.703.527-1.078 7.101-11.062 7.746-11.765.68-.75 1.992-1.079 2.953-.75 1.442.492 2.356 2.085 1.957 3.445-.094.316-1.02 1.992-2.062 3.715-1.653 2.73-1.899 3.21-1.899 3.633 0 1.02.82 1.699 1.863 1.546.528-.07.668-.21 10.325-9.843 6.855-6.844 9.914-9.832 10.218-9.961.598-.235 1.676-.223 2.262.047.656.293 1.3 1.054 1.512 1.78.234.763.234.856 0 1.641-.176.61-.41.856-5.625 6.082-5.777 5.801-5.766 5.778-5.438 6.551.188.48.598.715 1.196.715h.492l6.855-6.844c7.371-7.336 7.125-7.125 8.344-7.125.738 0 1.758.48 2.168 1.032.656.843.797 1.945.387 2.859-.176.398-1.57 1.863-5.672 5.977-5.918 5.941-5.836 5.824-5.39 6.68.222.433.855.738 1.324.632.21-.047 1.699-1.453 4.417-4.148 2.262-2.239 4.278-4.16 4.5-4.278.61-.304 1.56-.363 2.192-.117 1.101.422 1.922 1.535 1.922 2.637 0 1.183-.164 1.383-5.918 7.09-5.73 5.683-5.649 5.578-5.285 6.433.21.516.832.832 1.406.703.27-.058 1.312-1.02 4.348-4.03 4.347-4.313 4.312-4.29 5.566-4.196 1.418.105 2.46 1.183 2.555 2.625.093 1.394.515.914-10.43 11.836-6.082 6.07-10.242 10.125-10.816 10.558-2.672 1.992-5.579 3.2-8.848 3.668-.55.082-2.332.153-4.02.164l-3.023.024-3.328 3.34c-3.34 3.328-3.34 3.34-3.34 3.843 0 .727.48 1.184 1.242 1.184h.55l3-2.977 3-2.976 2.579.012c2.695 0 3.61-.094 5.707-.575 2.86-.644 5.602-1.945 8.121-3.832 1.16-.867 20.871-20.543 21.328-21.28.785-1.278 1.008-3.13.54-4.5-.516-1.5-1.735-2.767-3.13-3.27l-.726-.258.34-.422c.468-.586.785-1.348.949-2.32.422-2.497-1.066-5.016-3.469-5.836-.293-.106-.539-.211-.539-.246 0-.036.106-.2.223-.375.422-.575.738-1.582.797-2.473.21-3.047-2.121-5.637-5.086-5.637-1.325 0-2.274.258-3.094.844l-.34.234-.117-.328c-.305-.844-.41-1.066-.715-1.5-.668-.996-1.71-1.758-2.906-2.12-.75-.224-2.39-.2-3.13.058z"/><path d="M28.009 21.293a6.4 6.4 0 00-2.098.785c-2.203 1.336-3.27 3.973-2.637 6.504 1.102 4.383 6.68 5.918 9.88 2.707 1.16-1.16 1.675-2.414 1.687-4.102 0-1.78-.492-3.035-1.688-4.23-1.324-1.324-3.34-1.98-5.144-1.664zm2.156 2.625c.703.258 1.559.996 1.875 1.617 1.289 2.485-.984 5.508-3.715 4.934-.375-.07-.668-.164-.668-.211 0-.035.762-.844 1.7-1.781 1.628-1.641 1.699-1.735 1.699-2.192 0-.808-.704-1.383-1.524-1.23-.176.035-.973.726-2.004 1.746l-1.71 1.687-.153-.527c-.48-1.746.621-3.621 2.46-4.184.54-.164 1.395-.105 2.04.141zm7.605-.504c-.386.305-.55.867-.386 1.36.41 1.253 2.343.925 2.343-.399 0-.691-.48-1.172-1.195-1.172-.293 0-.61.094-.762.211zm-21.68 3.117c-1.817.586-3.013 2.461-2.79 4.348.105.809.668 1.945 1.242 2.46 1.207 1.09 2.953 1.372 4.406.716.856-.387 1.676-1.207 2.063-2.04.398-.843.363-2.425-.047-3.316-.656-1.406-1.945-2.238-3.504-2.297-.504-.023-1.09.036-1.37.13zm1.944 2.508c.786.422 1.055 1.418.563 2.145-.586.89-1.652 1.02-2.379.293-.504-.504-.61-1.079-.328-1.676.433-.867 1.336-1.195 2.144-.762zm16.536 4.289c-1.113.316-2.027 1.125-2.53 2.238-.27.586-.33.868-.33 1.653 0 .843.048 1.043.376 1.722.855 1.735 2.73 2.614 4.57 2.145.867-.223 1.442-.563 2.086-1.266.68-.726.926-1.453.926-2.672 0-1.207-.316-1.992-1.125-2.8-.984-.996-2.625-1.418-3.973-1.02zm1.864 2.508c1.172.633 1.03 2.32-.235 2.836-.785.328-1.875-.316-2.039-1.207-.164-.832.668-1.84 1.512-1.84.2 0 .55.094.762.21zm-18.983.879c-1.184.492-2.027 1.289-2.531 2.379a4.682 4.682 0 003.691 6.62c1.02.13 7.465.13 8.485 0 1.054-.14 2.133-.655 2.824-1.358 2.238-2.286 1.57-6.118-1.324-7.489l-.762-.363-4.863-.023c-4.852-.036-4.864-.036-5.52.234zm4.23 4.36v2.284H20.51c-1.512 0-2.262-.164-2.766-.609-.562-.492-.785-.973-.785-1.676 0-.328.082-.75.187-.949.282-.54.961-1.078 1.454-1.16.246-.047.503-.094.562-.117.07-.024.656-.047 1.324-.047l1.196-.012v2.285zm5.274-2.157c.293.059.703.234.914.375.445.305.961 1.254.961 1.781 0 .54-.516 1.477-.996 1.805-.527.352-1.125.469-2.543.48h-1.149v-4.57h1.149c.621 0 1.371.059 1.664.129z"/></g><defs><clipPath id="clip0_20083_341"><path fill="#fff" d="M0 0h60v60H0z"/></clipPath></defs></svg>