<svg width="62" height="62" fill="none" xmlns="http://www.w3.org/2000/svg"><g clip-path="url(#clip0_20083_778)" fill="#335B4C"><path d="M10.32.303c-.423.35-.569.847-.4 1.283.061.17.582.824 1.163 1.441l1.054 1.15-.739.134c-1.102.194-1.623.823-1.332 1.598.145.388 3.524 4.65 3.948 4.977.75.606 1.853.049 1.853-.932 0-.412-.146-.654-1.2-1.974l-1.186-1.502.617-.096c1.272-.206 1.841-.739 1.684-1.562-.073-.364-3.536-4.239-4.117-4.602-.473-.303-.92-.266-1.345.085z"/><path d="M31.692.242c-.181.145-1.078 1.369-2.022 2.725-1.465 2.131-1.695 2.53-1.695 2.942 0 .352.084.545.363.812.315.302.46.35 1.332.4.533.024.969.084.969.132-.012.037-.352.642-.763 1.345-.545.908-.848 1.295-1.054 1.356-.17.048-1.005.145-1.865.218-4.601.4-10.038 2.022-14.18 4.214l-1.09.581-.544-.787c-.69-1.005-1.526-1.647-2.58-1.962-3.96-1.223-7.435 2.846-5.582 6.54.472.956 1.078 1.55 2.325 2.312.702.436.872.594.835.787-.036.134-.193.836-.363 1.575-1.175 5.05-1.175 10.668-.012 15.863.157.727.327 1.44.363 1.574.049.206-.133.376-1.041.957-1.586 1.017-2.277 1.95-2.555 3.487-.376 2.023.75 4.142 2.676 5.038.957.448 2.567.52 3.524.157 1.138-.436 1.707-.932 2.773-2.446l.194-.254 1.574.787a40.48 40.48 0 005.437 2.264l1.21.4-1.27.279c-3.415.714-6.043 2.53-7.775 5.388-.896 1.477-1.562 3.536-1.38 4.263.048.193.254.436.472.569.375.242.726.242 21.01.242 22.245 0 21.118.036 21.457-.593.291-.57-.012-1.877-.847-3.585a11.478 11.478 0 00-5.086-5.195c-1.211-.617-1.925-.872-3.367-1.15l-1.053-.206 1.21-.4a43.59 43.59 0 005.438-2.264l1.586-.8.182.255c1.066 1.502 1.635 2.01 2.773 2.446.957.363 2.567.29 3.524-.157 1.937-.896 3.063-3.052 2.676-5.074-.303-1.526-.98-2.446-2.555-3.451-1.005-.654-1.09-.739-1.03-1.017.34-1.296.679-2.98.74-3.633.072-.727.048-.836-.206-1.139-.194-.218-.449-.35-.788-.4-.726-.096-1.198.34-1.368 1.272a105.86 105.86 0 01-.642 2.798c-.46 1.913-.496 2.119-.327 2.422.097.169.848.762 1.683 1.307 1.332.872 1.55 1.066 1.853 1.623.412.775.412 1.223.012 2.022-.411.824-1.065 1.235-1.974 1.235-1.053 0-1.465-.302-2.47-1.816-.835-1.272-1.15-1.574-1.67-1.574-.146 0-.994.411-1.902.908-2.979 1.623-6.49 2.955-9.579 3.645-1.646.363-1.598.375-1.828-.436-.23-.787-.17-.896.787-1.635 3.04-2.325 4.662-5.703 4.662-9.736 0-1.235.012-1.32.424-2.083.57-1.065 1.223-3.1 1.405-4.323.218-1.562.084-4.056-.303-5.534-.424-1.634-1.526-3.838-2.555-5.11-6.43-7.98-18.842-6.6-23.274 2.58-.896 1.876-1.26 3.317-1.332 5.4-.037.993-.013 2.059.072 2.664.182 1.223.836 3.258 1.405 4.323.412.763.424.848.424 2.083 0 4.033 1.622 7.411 4.662 9.736 1.005.775 1.03.86.714 1.804l-.194.57-.508-.073c-.908-.158-3.633-.884-4.892-1.332a38.92 38.92 0 01-5.74-2.543c-.908-.497-1.78-.908-1.95-.908-.46 0-.847.387-1.707 1.695-.908 1.393-1.344 1.695-2.398 1.695-.993 0-1.804-.593-2.131-1.562-.218-.63-.182-1.017.182-1.695.302-.557.52-.75 1.852-1.623.848-.557 1.587-1.138 1.696-1.32.157-.29.133-.484-.34-2.36-.605-2.435-.823-3.803-1.004-6.431-.23-3.306.145-7.084 1.053-10.547.254-.993.4-1.756.351-1.95-.097-.436-.363-.666-1.913-1.635-1.393-.86-1.816-1.332-1.962-2.13-.17-.921.485-2.12 1.356-2.483.57-.242 1.332-.206 1.95.084.448.218.666.485 1.417 1.623.484.739.969 1.393 1.09 1.429.448.182.956.06 1.731-.388 11.31-6.575 25.66-6.6 36.982-.072.896.52 1.393.642 1.853.46.121-.036.606-.69 1.09-1.429.75-1.138.969-1.405 1.417-1.623.617-.29 1.38-.326 1.95-.084.871.363 1.525 1.562 1.356 2.482-.146.787-.57 1.26-1.962 2.131-2.168 1.369-2.156 1.332-1.61 3.367.205.763.472 1.95.605 2.64.206 1.102.29 1.307.605 1.586.521.472 1.102.46 1.599-.036.35-.352.375-.4.302-1.127-.036-.411-.218-1.38-.4-2.143-.169-.763-.338-1.49-.362-1.623-.049-.193.133-.363.92-.847 1.126-.69 1.792-1.357 2.228-2.216 1.865-3.681-1.623-7.799-5.582-6.576-1.054.315-1.89.957-2.58 1.962l-.557.8-.956-.521c-2.882-1.575-7.29-3.125-10.79-3.803-1.429-.278-3.669-.557-5.4-.678-.654-.036-1.187-.097-1.187-.133 0-.024.46-.836 1.029-1.804 1.175-1.998 1.26-2.398.702-2.98-.302-.314-.387-.338-1.271-.338-.52 0-.945-.025-.945-.06 0-.025.46-.74 1.03-1.575.63-.92 1.029-1.635 1.029-1.817 0-1.005-1.102-1.61-1.853-1.029zm2.204 17.922c3.318.945 5.91 3.064 7.326 5.994.824 1.683 1.054 2.628 1.126 4.65.073 1.683.06 1.744-.157 1.66-.121-.061-.92-.146-1.756-.207-4.105-.278-7.81-1.731-11.032-4.323-.508-.412-1.077-.787-1.271-.823-.46-.097-2.289.52-3.597 1.199-1.67.86-3.56 2.458-4.65 3.899l-.278.363.048-1.756c.061-1.913.255-2.773.933-4.286 1.526-3.415 4.783-5.934 8.561-6.612 1.017-.194 3.742-.049 4.747.242zm-5.522 10.039c3.1 2.422 7.205 4.056 11.201 4.444l.896.085-.048 3.463c-.06 3.923-.109 4.202-1.005 6.006-1.199 2.434-3.294 4.166-5.946 4.929-1.356.387-3.584.387-4.94 0-2.652-.763-4.747-2.495-5.946-4.929-.908-1.84-.945-2.046-.993-6.357l-.049-3.815.679-.823c.872-1.042 2.252-2.143 3.5-2.773.786-.388 1.573-.739 1.864-.811.012-.013.363.254.787.58zm-.206 21.336c1.43.388 4.178.388 5.655 0 .594-.145 1.09-.254 1.102-.23.025.013.134.315.242.666.122.34.376.848.57 1.127l.363.496-.279.23c-.508.436-2.203 1.187-3.087 1.38-1.793.4-3.61.17-5.304-.665-.533-.267-1.09-.582-1.248-.703l-.266-.23.412-.63c.218-.339.472-.86.557-1.162.084-.29.193-.533.242-.533.048 0 .509.121 1.041.254zm-3.56 4.105c.92.74 2.386 1.478 3.67 1.841 1.404.4 4.056.4 5.449 0 1.271-.363 2.797-1.138 3.693-1.865.702-.557.75-.581 1.187-.472.242.073 1.465.29 2.7.484 1.32.218 2.616.497 3.136.69 2.156.8 4.239 2.774 5.171 4.917l.157.34H12.245l.181-.449c.824-1.962 3.015-4.02 5.122-4.795.509-.194 1.902-.497 3.427-.751 1.405-.23 2.58-.448 2.616-.484.133-.134.278-.049 1.017.544z"/><path d="M27.396 34.596c-.084.037-.29.267-.46.533-.278.448-.302.46-.823.4-.46-.073-.57-.036-.933.29-.81.727-.423 1.841.727 2.095 1.163.255 2.289-.278 3.076-1.465.545-.811-.024-1.95-.969-1.925-.254 0-.533.036-.617.072zm5.774.267c-.606.605-.448 1.477.4 2.264 1.029.981 2.458 1.15 3.293.412.303-.279.376-.436.376-.848 0-.424-.073-.569-.412-.872-.363-.327-.472-.363-.945-.29-.508.06-.545.048-.787-.351-.303-.521-.545-.666-1.126-.666-.327 0-.533.096-.8.35zm-2.992 5.34c-.678.145-1.671.69-2.035 1.126-.617.739-.23 1.829.703 1.986.375.06.557 0 1.09-.339.411-.266.774-.411 1.065-.411.29 0 .654.145 1.066.411.533.34.714.4 1.09.34.944-.158 1.32-1.248.678-2.01-.69-.824-2.446-1.345-3.657-1.103zM50.343.218c-.582.363-4.045 4.238-4.118 4.602-.157.823.412 1.356 1.684 1.562l.617.097L47.34 7.98c-1.053 1.32-1.198 1.562-1.198 1.974 0 .98 1.102 1.538 1.852.932.424-.327 3.803-4.59 3.948-4.977.29-.775-.23-1.404-1.332-1.598l-.739-.133 1.054-1.15c.581-.618 1.102-1.272 1.162-1.442.17-.436.025-.932-.4-1.283-.423-.351-.871-.388-1.343-.085zm4.978 30.116c-1.029.581-.617 2.24.557 2.24.654 0 1.224-.545 1.224-1.199 0-.896-.993-1.477-1.78-1.041z"/></g><defs><clipPath id="clip0_20083_778"><path fill="#fff" d="M0 0h62v62H0z"/></clipPath></defs></svg>