<svg width="66" height="66" fill="none" xmlns="http://www.w3.org/2000/svg"><path d="M40.412 4.305c-.528.232-1.07.89-1.16 1.406-.038.232-.064 2.913-.038 5.98.038 5.39.051 5.57.309 5.918.142.193.425.476.619.618.348.271.45.271 10.39.271 9.938 0 10.041 0 10.39-.27.67-.503.876-.903.927-1.844l.052-.89.89-.051c.94-.052 1.34-.258 1.843-.928.258-.335.27-.529.27-3.171 0-2.643-.012-2.836-.27-3.171-.503-.67-.903-.877-1.843-.928l-.89-.052-.052-.89c-.051-.94-.257-1.34-.928-1.843-.348-.27-.477-.27-10.235-.296-8.018-.026-9.964 0-10.274.141zM59.84 7.09c.077 1.444.721 2.088 2.165 2.165l.903.052v4.074l-.903.051c-1.444.077-2.088.722-2.165 2.166l-.052.902H41.25V6.188h18.537l.052.902z" fill="#335B4C" stroke="#335B4C" stroke-width=".5"/><path d="M43.635 8.572c-.322.31-.322.335-.322 2.772 0 2.436 0 2.462.322 2.771a1 1 0 00.709.322c.245 0 .515-.115.709-.322.322-.31.322-.335.322-2.771 0-2.437 0-2.462-.322-2.772a1.005 1.005 0 00-.71-.322c-.244 0-.515.116-.708.322zM25.11 17.66c-3.106.529-6.252 2.643-7.876 5.311-.902 1.495-.94 2.269-.142 2.643.413.206.49.206.8.025.335-.18.412-.283.94-1.43.62-1.315 2.256-2.759 4.126-3.636 2.449-1.16 4.924-1.263 7.876-.335 1.47.464 2.243.477 3.248.065.426-.168.787-.297.8-.284.206.245.876 1.844 1.044 2.45.257 1.005.167 2.5-.22 3.763-.154.49-.296.916-.322.941-.026.026-.296-.206-.606-.515-1.998-2.011-3.777-2.372-6.174-1.25-1.173.554-1.25.567-2.501.567-.709 0-1.624-.052-2.024-.116-.683-.104-.748-.09-1.057.219-.425.425-.438 1.018-.039 1.43.555.555 3.623.8 4.963.4a15 15 0 001.599-.644c1.057-.516 1.598-.555 2.384-.207.645.297 1.599 1.16 2.115 1.908.27.4.515.58.863.683.568.142 1.006.555 1.122 1.057.141.555-.258 1.676-.825 2.32-.464.516-.529.697-.722 1.767-.451 2.63-1.586 4.743-3.042 5.684-1.56 1.006-3.61 1.032-5.595.052-1.263-.619-1.843-.567-2.101.18-.296.851.425 1.496 2.372 2.166.876.31 1.237.361 2.565.361 2.217.013 3.364-.412 4.873-1.843 1.379-1.29 2.616-3.919 2.99-6.317.065-.348.271-.786.542-1.147 1.186-1.56 1.366-3.61.412-4.924l-.386-.529.386-1.121c.71-2.05.812-3.545.4-5.272-.606-2.54-1.882-4.55-2.875-4.55-.129 0-.619.231-1.083.515-.49.296-1.03.515-1.237.515-.22 0-.915-.167-1.56-.373-1.882-.606-4.305-.813-6.033-.529z" fill="#335B4C" stroke="#335B4C" stroke-width=".5"/><path d="M18.34 26.993c-1.212.387-2.037 1.173-2.642 2.5-.207.452-.632 1.844-.941 3.095-1.444 5.8-1.973 9.667-2.282 16.487l-.155 3.519h-2.037c-1.546 0-2.036-.039-2.036-.168 0-.528.296-3.313.464-4.344.722-4.499 2.088-7.953 3.816-9.707.992-1.005 1.108-1.418.554-1.959-.451-.464-.954-.412-1.663.155-2.153 1.766-3.97 6.136-4.77 11.511-.257 1.727-.464 3.945-.464 5.066 0 .76.039.915.323 1.186.167.18.4.322.502.322.207 0 .22.039.464 1.418.18 1.019.838 2.475 1.393 3.12.232.245.412.49.412.541 0 .039-1.714.078-3.803.078H1.66l-.31.322c-.425.412-.425 1.005 0 1.418l.31.322h62.674l.31-.322c.425-.413.425-1.006 0-1.418l-.31-.322h-5.118c-4.808 0-5.104-.013-5.014-.233.477-1.108.554-2.732.245-4.679-.18-1.134-.18-1.302 0-1.65.116-.206.206-.49.206-.631 0-.271-1.882-5.917-2.759-8.263-.812-2.153-1.675-4.164-2.204-5.105-.838-1.508-2.475-2.733-4.73-3.558-1.277-.464-5.518-1.663-5.905-1.663-.4 0-.902.567-.902 1.006 0 .735.284.89 2.965 1.637 3.648 1.031 5.079 1.65 6.084 2.604.864.825 2.566 4.911 4.59 11.047l.721 2.178-.4.349c-1.12 1.005-4.189 1.392-7.45.94l-.542-.064-.438-1.83c-.477-2.011-.709-2.398-1.405-2.398-.477 0-1.031.503-1.031.928 0 .168.258 1.315.58 2.553.412 1.637.632 2.307.825 2.462.67.541 5.917.76 7.786.322.554-.13 1.224-.31 1.47-.413.244-.116.49-.154.54-.116.04.052.078.787.078 1.65 0 1.354-.039 1.637-.258 2.024-.567.954.258.903-13.303.903H26.822l.065-.426c.244-1.38.58-1.985 1.405-2.565 1.108-.774 3.867-1.135 8.74-1.135 2.539 0 2.552 0 2.861-.322.438-.425.426-1.005-.013-1.444l-.335-.335-3.764.078c-5.865.116-7.915.58-9.449 2.1-.838.852-1.302 2.012-1.585 4.01 0 .064-3.996.038-3.996-.026 0-.039.193-.322.425-.632.245-.309.593-.94.774-1.418.709-1.74.734-2.268.734-12.155 0-10.107-.064-9.41.941-10.57.825-.955 1.057-1.65 1.044-3.069-.012-1.47-.335-2.372-1.211-3.326-1.315-1.443-3.455-2.1-5.118-1.585zm2.836 2.372a2.876 2.876 0 011.47 2.178c.116 1.032-.026 1.47-.76 2.308-1.29 1.482-1.187.528-1.264 11.782-.065 9.088-.09 9.913-.31 10.57-.889 2.707-2.59 3.777-5.62 3.57-3.12-.231-4.834-1.675-5.272-4.46l-.103-.657h2.243c2.204 0 2.243 0 2.552-.322.31-.297.322-.387.322-1.895 0-5.607.928-14.321 1.87-17.57a41.8 41.8 0 00.58-2.256c.476-2.152 1.018-3.184 1.869-3.57.58-.258 1.624-.13 2.423.322z" fill="#335B4C" stroke="#335B4C" stroke-width=".5"/></svg>