<svg width="60" height="60" fill="none" xmlns="http://www.w3.org/2000/svg"><g clip-path="url(#clip0_20083_701)" fill="#335B4C"><path d="M8.766.187c-.41.211-.563.504-.563 1.043 0 .364.14.575 1.207 1.723 1.7 1.852 1.887 2.074 1.7 2.133-.083.035-.575.105-1.09.176-.504.082-1.043.21-1.184.293-.316.222-.563.808-.469 1.172.07.27 3.774 5.074 4.559 5.894.62.656 1.535.61 1.898-.094.375-.726.328-.82-1.746-3.433-1.512-1.91-1.5-1.723-.129-1.899 1.008-.117 1.442-.281 1.688-.597.363-.457.316-.996-.13-1.524C13.653 4.066 10.16.34 9.927.176c-.317-.223-.75-.223-1.16.011zM50.08.176c-.235.164-4.02 4.219-4.642 4.957-.386.48-.41 1.043-.07 1.465.246.316.68.48 1.688.597 1.37.176 1.383-.011-.13 1.899-2.074 2.613-2.12 2.707-1.745 3.433.363.703 1.277.75 1.898.094.785-.82 4.488-5.625 4.559-5.894.093-.364-.153-.95-.469-1.172-.14-.082-.68-.211-1.184-.293-.515-.07-1.008-.14-1.09-.176-.187-.059 0-.281 1.711-2.133 1.055-1.148 1.196-1.36 1.196-1.723 0-.55-.164-.832-.586-1.054-.434-.223-.82-.223-1.137 0zM28.01 6.293c-4.36.703-8.004 3.164-10.207 6.902-.563.95-1.313 2.719-1.453 3.446-.059.28-.317.656-.82 1.172-1.208 1.265-1.817 2.449-2.063 3.972-.094.645-.082 1.3.058 2.965.106 1.184.211 2.367.258 2.637.059.48.047.504-.234.504-.164 0-.457.14-.645.316-.34.316-11.554 19.77-12.222 21.2-1.7 3.62-.07 8.05 3.597 9.831 1.676.809.13.762 25.723.762 25.594 0 24.047.047 25.723-.762 3.117-1.511 4.816-4.945 4.101-8.297-.21-1.02-.515-1.675-1.84-3.984-.914-1.594-1.125-1.887-1.464-2.039-.493-.2-1.102-.047-1.383.352-.375.539-.235 1.007.89 2.964 1.266 2.215 1.512 2.79 1.594 3.797.211 2.496-1.441 4.805-3.89 5.45-2.333.597-4.817-.528-5.848-2.672-.445-.926-7.98-21.399-7.899-21.47.059-.058 5.813-2.753 5.872-2.753.035 0 .914 1.512 1.968 3.363 1.055 1.864 2.063 3.516 2.239 3.692.597.62 1.617.351 1.863-.493.164-.539.363-.129-2.403-4.957-1.207-2.109-2.332-3.937-2.496-4.066-.164-.129-.433-.234-.586-.234-.27 0-.28-.036-.222-.446a86.56 86.56 0 00.258-2.672c.164-2.039.164-2.332 0-3.21-.258-1.36-.856-2.52-1.887-3.61-.68-.726-.867-1.02-.984-1.488-.2-.809-.903-2.426-1.465-3.375-2.086-3.504-5.707-6.012-9.657-6.703-.914-.164-3.714-.223-4.476-.094zm4.98 2.602c1.032.269 2.813 1.09 3.645 1.664.75.504 1.605 1.289 2.297 2.074.62.715 1.734 2.437 1.734 2.683 0 .106-.187.153-.586.153-2.355 0-4.3 2.672-3.597 4.945.164.54.164.563-.047.563-.399 0-2.825-.832-3.914-1.336-1.372-.645-2.907-1.606-4.207-2.637-.832-.68-1.114-.832-1.442-.832-.48 0-2.238.574-3.094 1.008-.586.293-.62.293-.726.082-.223-.41-1.102-1.172-1.676-1.453a3.786 3.786 0 00-1.3-.317c-.47-.035-.74-.105-.74-.187 0-.153.892-1.641 1.29-2.157.55-.726 1.98-2.062 2.695-2.543 1.43-.949 2.73-1.511 4.336-1.863 1.16-.27 4.113-.176 5.332.153zm-12.457 9.117c.399.234.797.925.797 1.37 0 .165-.375 1.313-.844 2.544l-.843 2.25.14 1.71c.082.938.14 1.97.14 2.286 0 .656-.198 1.945-.339 2.156-.07.117-.504-.047-1.664-.586-.867-.398-1.594-.738-1.617-.762-.024-.011-.176-1.441-.328-3.164-.317-3.48-.293-3.902.28-5.074.317-.633 2.169-2.601 2.673-2.812.398-.176 1.23-.13 1.605.082zm20.66.023c.692.434 2.25 2.098 2.567 2.73.539 1.114.574 1.688.27 5.11-.165 1.688-.305 3.094-.329 3.105-.023.024-.75.364-1.617.762-1.16.54-1.594.703-1.664.586-.14-.21-.34-1.5-.34-2.156 0-.317.059-1.348.14-2.285l.141-1.711-.843-2.25c-.47-1.23-.844-2.39-.844-2.567.012-.445.363-1.043.773-1.312.446-.305 1.278-.305 1.746-.012zm-13.535 1.406c2.59 1.946 5.742 3.34 9.012 3.985l.984.199.164.457c.141.387.141.738.024 2.086-.164 1.852-.094 3.281.223 4.5.21.82.21.855.011.914-.316.105-.808.738-.808 1.055 0 .152.164.715.363 1.242.434 1.184.434 1.16-.89 2.437-1.15 1.102-2.216 1.746-3.692 2.25-.961.328-1.313.387-2.637.422-2.285.082-4.066-.386-5.8-1.547-.75-.492-2.579-2.285-2.579-2.507 0-.059.164-.551.363-1.09.422-1.149.387-1.57-.14-2.016-.2-.164-.398-.305-.445-.305-.047 0 .011-.386.128-.855.317-1.219.387-2.648.223-4.5l-.14-1.617.761-2.074c.422-1.149.774-2.145.774-2.239 0-.21.293-.468.937-.785.703-.363 1.781-.808 1.957-.82.07 0 .61.363 1.207.808zM17.252 32.016c2.145.996 2.79 1.347 2.754 1.488-.2.738-7.57 20.637-7.887 21.305-.879 1.828-2.918 2.988-4.957 2.812a5.25 5.25 0 01-4.476-3.34c-.364-.902-.387-2.625-.059-3.48.129-.328 2.754-5.004 5.848-10.407 4.218-7.347 5.671-9.796 5.8-9.75.106.036 1.442.657 2.977 1.372zm5.941 7.312c.551.363.575.492.235 1.383-.293.809-1.149 1.617-1.887 1.805-.703.187-2.308.422-2.379.351-.035-.035.375-1.242.902-2.695l.973-2.625.844.726c.457.399 1.055.88 1.312 1.055zm17.66 3.54c-.093.081-2.074-.224-2.566-.4-.96-.34-1.722-1.277-1.887-2.331-.082-.47-.07-.48.54-.914.34-.235.937-.715 1.324-1.055l.703-.633.96 2.637c.54 1.453.95 2.66.927 2.695zm-13.863-1.83c.832.234 1.243.27 3.012.27 1.758 0 2.191-.047 3.012-.27.527-.14.984-.258 1.008-.258.035 0 .152.258.257.574.094.317.375.88.598 1.254l.41.68-.27.211c-.527.422-1.687 1.02-2.449 1.266-2.543.808-5.46.328-7.582-1.278l-.27-.199.411-.68c.223-.375.504-.937.598-1.254.105-.316.222-.574.246-.574.035 0 .492.117 1.02.258zm-3.504 4.242a10.757 10.757 0 0011.122 1.196c.492-.235 1.324-.75 1.84-1.137.89-.668.96-.703 1.324-.586.199.07 1.218.258 2.25.422 1.02.164 1.875.316 1.875.328.011.012.82 2.238 1.816 4.945 1.957 5.38 2.098 5.707 2.8 6.598l.481.61H12.998l.399-.505c.726-.89 1.09-1.722 2.906-6.703.984-2.707 1.793-4.933 1.805-4.945 0-.012.878-.164 1.933-.34 1.055-.164 2.027-.352 2.156-.398.387-.164.41-.153 1.29.515z"/><path d="M25.665 26.988c-.703.305-.926.457-1.101.797-.422.774.093 1.63.984 1.63.504 0 1.816-.587 2.074-.927.422-.55.211-1.383-.433-1.71-.457-.235-.516-.235-1.524.21zm7.124-.211c-.621.352-.82 1.172-.41 1.711.258.34 1.57.926 2.074.926.867 0 1.383-.82 1.008-1.605-.152-.317-.352-.48-.961-.75-.973-.446-1.313-.504-1.711-.282zm-3.844 5.086c-1.03.34-1.992 1.16-1.992 1.723 0 1.09 1.16 1.582 2.05.867.352-.281.563-.352.997-.352.434 0 .645.07.996.352 1.336 1.055 2.777-.55 1.547-1.723-.656-.632-1.324-.89-2.367-.925-.516-.024-1.067 0-1.23.058zM.603 11.414c-.54.305-.727.95-.457 1.547.117.258.562.527 2.238 1.324l2.086 1.008-.996.574c-1.348.785-1.653 1.43-1.043 2.156.328.387 6.363 3.786 6.843 3.856.352.047.493 0 .82-.293.329-.293.4-.434.4-.832 0-.668-.223-.856-2.579-2.18-1.09-.62-2.039-1.172-2.086-1.219-.047-.058.375-.351.938-.68.796-.445 1.078-.679 1.242-.995.246-.504.176-.914-.211-1.29-.352-.34-6.246-3.128-6.621-3.128-.164 0-.422.07-.574.152zm54.889 1.301c-1.676.797-3.164 1.558-3.293 1.687-.375.364-.445.786-.199 1.278.164.316.445.55 1.242.996.563.328.985.62.938.68-.047.046-.985.597-2.086 1.218-2.367 1.336-2.578 1.524-2.578 2.18 0 .398.07.539.398.832.328.293.469.34.82.293.246-.035 1.594-.727 3.235-1.664 3.633-2.063 3.644-2.074 3.808-2.567.223-.691-.058-1.101-1.242-1.78l-.996-.575 2.086-1.008c2.145-1.02 2.379-1.207 2.379-1.863 0-.61-.574-1.172-1.195-1.172-.153.012-1.641.668-3.317 1.465zM52.878 40.43c-.504.304-.668.75-.504 1.3.258.844 1.265 1.09 1.898.47.575-.587.375-1.618-.375-1.876-.504-.176-.574-.164-1.02.106z"/></g><defs><clipPath id="clip0_20083_701"><path fill="#fff" d="M0 0h60v60H0z"/></clipPath></defs></svg>