<svg width="60" height="60" fill="none" xmlns="http://www.w3.org/2000/svg"><path d="M22.735 1.36c-2.508.68-4.36 2.413-5.227 4.91-.281.808-.328 1.113-.328 2.285 0 1.875.387 3.093 1.465 4.535.246.34.457.656.457.703 0 .047-4.137 4.23-9.2 9.293C-.561 33.55.07 32.8.06 34.746c0 .961.035 1.125.386 1.84.481.984 1.407 1.852 2.344 2.203 1.149.434 2.824.293 3.739-.293l.257-.176.035 8.989c.036 8.25.047 9.035.235 9.445.363.797.89 1.348 1.652 1.723l.727.351 20.683-.023c20.297-.035 20.696-.035 21.153-.27.633-.304 1.324-1.02 1.629-1.687.246-.54.246-.61.28-9.54l.036-8.988.258.176c.914.586 2.59.727 3.738.293.938-.352 1.863-1.219 2.344-2.203.351-.703.387-.879.387-1.84 0-1.793-.082-1.91-4.477-6.305-4.008-3.984-3.95-3.937-4.723-3.539-.433.223-.586.504-.586 1.067 0 .422.153.597 3.622 4.078 2.003 2.004 3.69 3.797 3.75 3.973.351.925-.082 2.05-.973 2.507-.445.235-1.348.235-1.781 0-.188-.105-4.43-4.277-9.422-9.27l-9.082-9.093.761-.773a36.39 36.39 0 011.442-1.36l.68-.597 2.086 2.062 2.074 2.074h.539c.457 0 .586-.058.844-.363.21-.234.304-.492.304-.785 0-.387-.152-.574-2.05-2.485-1.126-1.136-2.051-2.097-2.051-2.144 0-.047.21-.363.457-.703 2.238-2.953 1.933-7.184-.692-9.774-.797-.796-1.687-1.359-2.789-1.77-1.054-.398-3.117-.491-4.242-.198-1.055.27-2.297.902-3.024 1.535l-.61.539-.61-.54c-.726-.632-1.968-1.265-2.976-1.523-.914-.234-2.812-.234-3.68 0zm4.02 2.6c.491.247 1.16.74 1.792 1.325.89.82 1.055.926 1.453.926.399 0 .563-.106 1.453-.926.633-.586 1.301-1.078 1.793-1.324.762-.375.856-.387 2.145-.387 1.336 0 1.37.012 2.25.446 3.234 1.593 3.855 5.613 1.289 8.273-1.055 1.102-8.836 8.566-8.93 8.566-.094 0-8.015-7.605-9-8.625-2.707-2.836-1.676-7.195 2.027-8.52.446-.151.868-.198 1.77-.175 1.055.035 1.254.082 1.957.422zm-4.419 12.845l1.395 1.347-9.082 9.094c-4.993 5.004-9.235 9.176-9.422 9.281-.434.235-1.336.235-1.782 0-.89-.457-1.324-1.582-.972-2.508.105-.292 18.223-18.55 18.398-18.55.047 0 .703.597 1.465 1.336zm5.004 4.828c2.098 2.027 2.438 2.25 3.047 1.992.2-.082 1.242-.996 2.297-2.016l1.922-1.851 8.12 8.168 8.134 8.168-.024 9.89-.035 9.891-.281.305-.282.304h-4.77v-6.422c0-6.914-.023-7.242-.632-8.437-.433-.867-1.137-1.676-1.863-2.18-.375-.258-.668-.492-.668-.527 0-.035.105-.363.246-.715.305-.809.41-2.191.234-3.082-.304-1.453-1.441-3.07-2.66-3.785-1.84-1.09-4.266-1.055-6.047.094-2.238 1.418-3.234 4.43-2.273 6.808l.281.668-.375.258c-.2.14-.668.55-1.031.902L30 40.7l-.668-.633c-.375-.351-.844-.761-1.055-.902l-.375-.258.223-.504c1.09-2.472.047-5.625-2.344-7.078-1.23-.75-3.234-.996-4.57-.562-2.027.656-3.574 2.343-3.996 4.36-.176.89-.07 2.273.234 3.081.141.352.246.68.246.715 0 .035-.293.27-.668.527-.726.504-1.43 1.313-1.863 2.18-.61 1.195-.633 1.523-.633 8.438v6.421H9.762l-.281-.304-.282-.305-.023-9.855-.023-9.868 8.097-8.18c4.453-4.488 8.121-8.167 8.145-8.167.035 0 .914.82 1.945 1.828zm-3 11.601c1.172.563 1.852 1.676 1.84 3.035 0 1.372-.727 2.485-2.016 3.07-1.207.563-2.93.212-3.785-.76-1.195-1.349-1.23-3.235-.082-4.536 1.055-1.195 2.602-1.512 4.043-.809zm14.238-.047c.739.317 1.535 1.208 1.805 1.993.434 1.324-.047 2.883-1.172 3.738-2.555 1.945-6.187-.492-5.297-3.55.598-2.063 2.684-3.036 4.664-2.18zm-18.832 7.887c1.23.832 3.235 1.114 4.711.668.434-.14 1.055-.41 1.36-.61.539-.339.574-.35.925-.163.387.199 1.383 1.078 1.383 1.218 0 .06-.223.223-.504.387-.691.41-1.453 1.266-1.804 2.028-.387.855-.48 2.109-.223 3.011l.187.668-.761.75c-1.301 1.278-1.582 2.239-1.582 5.485v1.968h-6.575l.036-6.527.035-6.539.27-.586c.316-.691.82-1.254 1.534-1.71.293-.188.54-.34.563-.34.012 0 .21.128.445.292zm14.438.059c1.734 1.113 4.383 1.078 6.082-.07.387-.27.468-.282.738-.141.656.34 1.617 1.418 1.875 2.121.235.656.246.844.246 7.055v6.386h-6.562v-1.968c0-3.246-.282-4.207-1.582-5.485l-.762-.75.187-.668c.258-.902.165-2.156-.222-3.011-.352-.762-1.113-1.618-1.805-2.028-.281-.164-.504-.328-.504-.375 0-.199 1.477-1.418 1.723-1.418.011 0 .281.164.586.352zm-3.656 3.176c2.261.62 2.238 3.714-.024 4.312-.96.258-2.086-.281-2.508-1.207a2.234 2.234 0 011.418-3.094c.551-.164.574-.164 1.113-.011zm-1.254 6.656c.949.152 2.003-.012 2.8-.457l.622-.328.457.328c.246.187.574.574.726.902.258.528.281.727.317 2.813l.046 2.261h-8.484l.047-2.261c.035-2.086.058-2.285.316-2.813a2.8 2.8 0 01.727-.902l.457-.328.621.328c.328.187.938.386 1.348.457z" fill="#335B4C"/><path d="M47.156 21.082c-.351.152-.75.691-.75 1.031 0 .375.305.938.575 1.09.128.059.398.117.597.117.492 0 .785-.175.996-.586.258-.504.211-.89-.14-1.289-.352-.375-.88-.527-1.278-.363z" fill="#335B4C"/><rect x="26.461" y="9.879" width="2" height="8" rx="1" transform="rotate(-45 26.46 9.879)" fill="#335B4C"/><rect width="2" height="8" rx="1" transform="scale(-1 1) rotate(-45 -4.841 45.415)" fill="#335B4C"/></svg>