<svg width="60" height="60" fill="none" xmlns="http://www.w3.org/2000/svg"><g clip-path="url(#clip0_20083_734)" fill="#335B4C"><path d="M27.305.187C20.46 1.125 14.648 5.32 11.59 11.543c-1.078 2.215-1.688 4.3-1.98 6.797-.06.61-.118 3.996-.118 8.027 0 7.735.012 7.899.75 9.41.95 1.946 2.625 3.328 4.746 3.926l.75.211-.761.434c-3.258 1.816-5.942 5.133-7.172 8.824-.657 1.992-.785 3-.856 6.633l-.058 3.375.41.41.41.41h8.625c9.375 0 9.117.012 9.422-.645.176-.386.176-.667 0-1.054-.281-.61-.504-.645-4.137-.645h-3.34v-2.695c0-2.906-.047-3.176-.597-3.469-.61-.316-1.348-.094-1.606.48-.094.212-.14 1.16-.14 2.989v2.695H9.223l.07-2.496c.07-2.672.27-3.95.855-5.613 1.184-3.305 3.586-6.012 6.786-7.652 1.335-.68 3.421-1.36 5.015-1.63l.434-.081v.914c0 1.101.234 2.062.715 2.965.867 1.628 2.672 3.257 4.78 4.312 1.056.527 1.15.55 2.11.55.926 0 1.09-.034 1.934-.444 2.555-1.22 4.582-3.188 5.355-5.227.176-.457.27-1.02.317-1.863l.058-1.196.422.07c1.559.27 3.657.95 4.992 1.63 3.211 1.64 5.602 4.335 6.786 7.652.586 1.664.785 2.941.855 5.613l.07 2.496h-6.715v-2.695c0-2.906-.046-3.176-.597-3.469-.41-.21-.738-.21-1.149 0-.55.293-.597.563-.597 3.469v2.695h-3.34c-3.633 0-3.856.035-4.137.645-.176.386-.176.668 0 1.054.305.657.047.645 9.422.645h8.625l.41-.41.41-.41-.058-3.375c-.07-3.633-.2-4.63-.856-6.633-1.195-3.656-3.937-7.008-7.172-8.824l-.761-.422.691-.2c2.742-.75 4.805-2.906 5.379-5.613.258-1.254.258-14.12 0-16.148C49.09 8.473 41.672 1.184 32.168.117c-1.43-.152-3.375-.129-4.863.07zm5.074 2.333a18.152 18.152 0 0115.61 15.609c.257 1.887.245 14.695 0 15.656-.47 1.828-1.747 3.117-3.587 3.645-.527.152-1.148.187-3.316.164l-2.672-.035.75-.528c2.719-1.91 4.805-4.746 5.895-8.004.632-1.886.761-2.988.761-6.492 0-3.058 0-3.07-.28-3.398l-.282-.317-1.793-.023c-1.442-.012-1.992-.059-2.742-.27a10.342 10.342 0 01-4.735-2.754l-.633-.644.856-.914c1.488-1.594 1.934-2.25 1.934-2.824 0-.633-.434-1.079-1.055-1.079-.61 0-.692.06-1.63 1.231-4.077 5.004-10.5 7.7-17.589 7.383-3.246-.153-3.094-.164-3.41.21l-.281.329v3.07c0 3.445.117 4.524.715 6.387 1.03 3.21 3.21 6.187 5.94 8.11l.75.527-2.67.035c-2.907.035-3.411-.047-4.536-.657-.656-.351-1.606-1.312-1.945-1.992-.586-1.148-.598-1.36-.598-8.695 0-7.406.059-8.367.633-10.465a18.313 18.313 0 015.554-8.906c2.801-2.461 6.247-3.961 10.278-4.453.867-.106 2.918-.059 4.078.094zm2.074 15c2.203 2.226 4.746 3.375 8.016 3.644l1.031.082-.059 2.59c-.047 2.344-.082 2.695-.363 3.691-1.101 3.903-3.61 6.95-7.148 8.684-3.82 1.875-8.004 1.875-11.86 0-3.55-1.723-6.152-4.922-7.207-8.86-.21-.761-.258-1.37-.304-3.515l-.059-2.59 1.512.059c4.898.175 9.785-1.067 13.804-3.504.516-.305 1.102-.692 1.29-.856.199-.164.374-.293.41-.304.035 0 .457.398.937.879zm-8.73 21.855c1.16.328 3.011.586 4.277.586s3.117-.258 4.277-.586c.457-.129.867-.234.914-.234.059 0 .082.703.059 1.547-.035 1.44-.07 1.605-.375 2.203-.633 1.207-2.121 2.543-3.785 3.386-.914.457-1.266.457-2.18 0-1.617-.808-3.164-2.203-3.785-3.398-.305-.586-.34-.75-.375-2.191-.023-.844 0-1.547.059-1.547.046 0 .457.105.914.234z"/><path d="M24.152 23.836c-.468.258-.586.633-.597 1.793 0 1.031.011 1.101.34 1.465.28.316.421.386.832.386.41 0 .55-.07.832-.386.316-.364.34-.434.34-1.43 0-.574-.06-1.184-.141-1.348-.258-.562-1.031-.796-1.606-.48zm10.548 0c-.47.258-.587.633-.598 1.793 0 1.031.011 1.101.34 1.465.28.316.421.386.831.386s.551-.07.832-.386c.317-.364.34-.434.34-1.43 0-.574-.058-1.184-.14-1.348-.258-.562-1.032-.796-1.606-.48zm-7.808 7.019c-.199.165-.328.422-.375.739-.047.422-.011.539.281.867.329.363.399.387 1.454.48.703.059 1.593.246 2.449.504.738.235 1.511.422 1.722.422.903 0 1.407-1.136.82-1.828-.503-.586-3.574-1.441-5.202-1.453-.704 0-.891.047-1.149.27zm2.532 26.965c-1.02.563-.585 2.18.575 2.18.597 0 1.172-.574 1.172-1.16 0-.88-.973-1.453-1.747-1.02z"/></g><defs><clipPath id="clip0_20083_734"><path fill="#fff" d="M0 0h60v60H0z"/></clipPath></defs></svg>