<svg width="64" height="64" fill="none" xmlns="http://www.w3.org/2000/svg"><g clip-path="url(#clip0_20083_761)" fill="#335B4C"><path d="M31.39.175c-.337.188-.624.65-.637 1.013 0 .15.113.6.263 1 .337.937.275 1.95-.175 2.95-.675 1.487-.75 3.212-.213 4.662.413 1.075.925 1.462 1.688 1.275.837-.212 1.075-.9.7-2.025-.363-1.087-.338-1.75.112-2.9.663-1.75.788-2.862.438-4.187-.438-1.7-1.2-2.325-2.175-1.788zm-7.026 1.813c-.425.437-.462.875-.137 1.662.313.775.262 2.113-.1 2.913-.813 1.8-.837 3.724-.063 5.35.4.862 1.438 1.075 2.038.425.413-.438.45-.863.163-1.65-.375-1-.35-1.875.112-3.025.75-1.875.788-3.475.1-5.05-.438-1.025-1.413-1.313-2.113-.625zM38.1 1.813c-.187.112-.387.375-.475.625-.125.375-.1.55.113 1.187.375 1.075.337 1.913-.113 3.05-.5 1.225-.675 2.2-.575 3.15.1.963.488 2.138.838 2.513.55.575 1.575.462 1.925-.225.25-.463.237-.726-.075-1.65-.338-.988-.275-1.7.275-3.025.4-.938.425-1.088.412-2.438 0-1.2-.05-1.562-.287-2.15-.438-1.125-1.175-1.5-2.038-1.037zm-7.037 12.012c-1.963.3-3.813 1.413-4.95 2.975l-.363.488-1.087-.026c-3.05-.062-5.45 1.95-5.976 5.013-.075.463-.087.475-.575.475-.387 0-.587.087-.874.363-.35.35-.363.425-.363 1.45 0 4.337 2.538 9.062 6.313 11.75 1.05.75 2.85 1.687 3.25 1.687 1.05 0 1.675-1.138 1.05-1.913-.138-.187-.738-.587-1.338-.9-3.525-1.812-6.087-5.424-6.7-9.412l-.075-.525h25.263l-.075.462c-.376 2.263-1.388 4.563-2.75 6.25-1 1.25-2.513 2.476-3.963 3.226-.6.312-1.2.712-1.337.9-.625.774 0 1.912 1.05 1.912.4 0 2.2-.938 3.25-1.688 3.774-2.687 6.312-7.412 6.312-11.75 0-1.024-.013-1.1-.362-1.45-.288-.274-.488-.362-.875-.362-.488 0-.5-.012-.575-.475-.4-2.313-1.938-4.125-4.1-4.8-.563-.175-1.075-.238-1.876-.213l-1.087.026-.362-.488a7.597 7.597 0 00-3.875-2.725c-.713-.212-2.313-.337-2.95-.25zm1.825 2.55c1.375.262 2.65 1.188 3.287 2.4.675 1.263 1.113 1.5 2.063 1.163 2.012-.713 4.075.4 4.562 2.462l.075.35h-21.75l.075-.35a3.522 3.522 0 011.975-2.412c.637-.288 1.837-.313 2.587-.05.95.337 1.388.1 2.063-1.163.613-1.162 1.938-2.137 3.225-2.4.738-.137 1.075-.137 1.838 0z"/><path d="M3.064 25.863c-1.15.3-2.263 1.212-2.713 2.224-.537 1.226-.387 2.813.375 3.863.2.262 1.638 1.525 3.188 2.8 2.725 2.212 2.825 2.313 2.65 2.575-.088.15-.263.587-.388.987-.337 1.2-.212 1.75 1.05 4.538.863 1.887 1.35 3.188 2.088 5.587.525 1.713 1.137 3.463 1.35 3.876.225.424.8 1.162 1.337 1.7 1.35 1.362 2.875 2.087 4.813 2.312.687.075.862.162 2.037 1.025.7.525 1.275.987 1.275 1.038 0 .037-1.163.825-2.575 1.75-1.412.912-2.65 1.775-2.75 1.912-.275.4-.225 1.138.125 1.538.238.274.4.337.838.35.5 0 .825-.175 3.575-1.976l3.037-1.987 2.525 1.875c1.4 1.025 2.663 1.925 2.813 2.012.45.226.887.163 1.312-.224.563-.5.575-1.225.038-1.75-.213-.2-2.7-2.088-5.538-4.188-5.113-3.788-5.175-3.825-5.775-3.825-2.075 0-4.063-1.15-4.913-2.825-.162-.337-.762-2.075-1.312-3.862-.775-2.488-1.25-3.763-2.025-5.438-1.15-2.462-1.2-2.775-.5-3.413.45-.4 1.275-.462 1.713-.112.15.112.862 1.337 1.575 2.712.712 1.376 1.537 2.963 1.837 3.538.375.725.65 1.087.913 1.225.475.25 1.087.137 1.475-.275.562-.6.45-.925-1.538-4.737-1.013-1.925-2-3.7-2.213-3.963-.212-.25-.724-.625-1.15-.837-.675-.338-.912-.388-1.8-.388H8.802l-2.937-2.375C4.25 31.812 2.839 30.587 2.726 30.4c-.625-.962.313-2.325 1.425-2.1.488.1 9.138 6.375 10.287 7.475 1.263 1.188 1.988 2.275 4.5 6.725 1.226 2.163 2.376 4.087 2.55 4.263.175.175 2.488 1.737 5.138 3.45 2.65 1.724 8.475 5.512 12.937 8.425 7.6 4.95 8.163 5.3 8.675 5.3.438-.013.6-.076.838-.35.35-.413.4-1.138.112-1.55-.1-.138-1.337-1-2.75-1.925-1.412-.913-2.562-1.688-2.562-1.738 0-.038.575-.5 1.275-1.013 1.25-.912 1.325-.95 2.337-1.1 1.138-.175 2.05-.474 2.988-.987.825-.45 2.388-2.063 2.863-2.962.212-.413.825-2.163 1.35-3.876.75-2.424 1.224-3.687 2.1-5.624 1.112-2.438 1.15-2.526 1.15-3.438 0-.75-.063-1.075-.325-1.638l-.338-.7 2.825-2.3c1.55-1.262 2.975-2.525 3.175-2.787.762-1.063.913-2.637.375-3.863-.325-.737-1.163-1.575-1.963-1.962-.862-.413-2.25-.425-3.1-.025-.95.425-9.512 6.712-10.7 7.837-1.524 1.45-2.224 2.463-4.837 7.026l-2.337 4.1-4.288 2.787c-2.363 1.538-4.375 2.775-4.488 2.75-.1-.025-2.087-1.275-4.412-2.788l-4.238-2.75-2.337-4.1c-2.613-4.562-3.313-5.575-4.838-7.025-1.2-1.137-9.774-7.424-10.674-7.824-.65-.288-1.788-.413-2.375-.25zm57.612 2.575c.75.362 1.038 1.287.6 1.962-.113.188-1.525 1.413-3.138 2.712L55.215 35.5h-1.026c-.887 0-1.125.05-1.787.388-.425.212-.95.6-1.175.862-.225.263-1.225 2.05-2.225 3.962-1.962 3.788-2.075 4.113-1.512 4.713.387.413 1 .525 1.475.275.262-.138.537-.5.912-1.225.3-.575 1.125-2.163 1.838-3.538.712-1.374 1.425-2.6 1.575-2.712.437-.35 1.262-.288 1.712.112.7.638.65.95-.5 3.413-.775 1.675-1.25 2.95-2.025 5.438-.55 1.787-1.125 3.474-1.262 3.75-.888 1.787-2.813 2.937-4.938 2.937-.6 0-.7.063-2.65 1.513-1.112.825-2.087 1.474-2.175 1.45-.212-.088-6.737-4.338-6.925-4.513-.125-.125.612-.663 3.837-2.763 2.2-1.424 4.088-2.687 4.188-2.8.112-.124 1.262-2.087 2.575-4.374 2.588-4.538 3.2-5.463 4.475-6.65.763-.725 9.587-7.226 10.025-7.4.325-.126.638-.088 1.05.1z"/><path d="M31.55 36.737c-.375.163-.8.738-.8 1.1 0 .675.6 1.288 1.25 1.288.663 0 1.25-.612 1.25-1.3 0-.7-1.038-1.363-1.7-1.088z"/></g><defs><clipPath id="clip0_20083_761"><path fill="#fff" d="M0 0h64v64H0z"/></clipPath></defs></svg>